<svg xmlns="http://www.w3.org/2000/svg" xmlns:xlink="http://www.w3.org/1999/xlink" viewBox="0 0 4761.46 3498.15"><defs><style>.cls-1{isolation:isolate;}.cls-2{fill:#ed1c24;stroke:#231f20;stroke-miterlimit:10;}.cls-3{font-size:573.27px;font-family:ShowcardGothic-Reg, Showcard Gothic;}.cls-4{fill:url(#linear-gradient);}.cls-5{fill:url(#linear-gradient-2);}.cls-6{fill:url(#linear-gradient-3);}.cls-7{fill:url(#linear-gradient-4);}.cls-8{fill:url(#linear-gradient-5);}.cls-9{fill:url(#linear-gradient-6);}.cls-10{fill:url(#linear-gradient-7);}.cls-11{fill:url(#linear-gradient-8);}.cls-12{fill:url(#linear-gradient-9);}.cls-13{fill:url(#linear-gradient-10);}.cls-14{fill:url(#linear-gradient-11);}.cls-15{fill:url(#linear-gradient-12);}.cls-16{fill:url(#linear-gradient-13);}.cls-17{fill:url(#linear-gradient-14);}.cls-18{fill:url(#linear-gradient-15);}.cls-19{fill:url(#linear-gradient-16);}.cls-20{fill:url(#linear-gradient-17);}.cls-21{fill:url(#linear-gradient-18);}.cls-22{fill:url(#linear-gradient-19);}.cls-23{fill:url(#linear-gradient-20);}.cls-24{fill:url(#linear-gradient-21);}.cls-25{fill:url(#linear-gradient-22);}.cls-26{fill:url(#linear-gradient-23);}.cls-27,.cls-28{mix-blend-mode:multiply;}.cls-27{fill:url(#linear-gradient-24);}.cls-28{fill:url(#linear-gradient-25);}.cls-29{fill:url(#linear-gradient-26);}.cls-30{fill:url(#linear-gradient-27);}.cls-31{fill:url(#linear-gradient-28);}.cls-32{fill:url(#linear-gradient-29);}.cls-33{fill:url(#linear-gradient-30);}.cls-34{fill:url(#linear-gradient-31);}.cls-35{fill:url(#linear-gradient-32);}.cls-36{fill:url(#linear-gradient-33);}.cls-37{fill:#36c6f4;}</style><linearGradient id="linear-gradient" x1="743.09" y1="985.53" x2="2549.22" y2="1537.02" gradientUnits="userSpaceOnUse"><stop offset="0" stop-color="#8dc63f"/><stop offset="1" stop-color="#0db14b"/></linearGradient><linearGradient id="linear-gradient-2" x1="701.76" y1="1120.91" x2="2507.88" y2="1672.4" xlink:href="#linear-gradient"/><linearGradient id="linear-gradient-3" x1="781.21" y1="860.7" x2="2587.33" y2="1412.19" xlink:href="#linear-gradient"/><linearGradient id="linear-gradient-4" x1="799.78" y1="799.87" x2="2605.91" y2="1351.36" xlink:href="#linear-gradient"/><linearGradient id="linear-gradient-5" x1="762.12" y1="923.2" x2="2568.26" y2="1474.69" xlink:href="#linear-gradient"/><linearGradient id="linear-gradient-6" x1="764.83" y1="914.36" x2="2570.95" y2="1465.84" xlink:href="#linear-gradient"/><linearGradient id="linear-gradient-7" x1="724.46" y1="1046.53" x2="2530.6" y2="1598.02" xlink:href="#linear-gradient"/><linearGradient id="linear-gradient-8" x1="761.31" y1="925.86" x2="2567.44" y2="1477.35" xlink:href="#linear-gradient"/><linearGradient id="linear-gradient-9" x1="818.01" y1="740.19" x2="2624.14" y2="1291.68" xlink:href="#linear-gradient"/><linearGradient id="linear-gradient-10" x1="799.43" y1="801.03" x2="2605.56" y2="1352.52" xlink:href="#linear-gradient"/><linearGradient id="linear-gradient-11" x1="719.98" y1="1061.24" x2="2526.1" y2="1612.72" xlink:href="#linear-gradient"/><linearGradient id="linear-gradient-12" x1="780.35" y1="863.52" x2="2586.48" y2="1415.01" xlink:href="#linear-gradient"/><linearGradient id="linear-gradient-13" x1="742.69" y1="986.86" x2="2548.82" y2="1538.35" xlink:href="#linear-gradient"/><linearGradient id="linear-gradient-14" x1="783.05" y1="854.68" x2="2589.17" y2="1406.17" xlink:href="#linear-gradient"/><linearGradient id="linear-gradient-15" x1="809.23" y1="768.92" x2="2615.36" y2="1320.41" xlink:href="#linear-gradient"/><linearGradient id="linear-gradient-16" x1="711.2" y1="1089.97" x2="2517.33" y2="1641.46" xlink:href="#linear-gradient"/><linearGradient id="linear-gradient-17" x1="790.66" y1="829.76" x2="2596.78" y2="1381.25" xlink:href="#linear-gradient"/><linearGradient id="linear-gradient-18" x1="752.54" y1="954.59" x2="2558.67" y2="1506.08" xlink:href="#linear-gradient"/><linearGradient id="linear-gradient-19" x1="771.57" y1="892.25" x2="2577.7" y2="1443.74" xlink:href="#linear-gradient"/><linearGradient id="linear-gradient-20" x1="733.91" y1="1015.59" x2="2540.05" y2="1567.08" xlink:href="#linear-gradient"/><linearGradient id="linear-gradient-21" x1="774.27" y1="883.41" x2="2580.4" y2="1434.9" xlink:href="#linear-gradient"/><linearGradient id="linear-gradient-22" x1="2852.37" y1="2680.27" x2="2192.78" y2="2087.76" gradientUnits="userSpaceOnUse"><stop offset="0" stop-color="#f7941d"/><stop offset="1" stop-color="#fdb913"/></linearGradient><linearGradient id="linear-gradient-23" x1="3489.73" y1="2163.12" x2="2804.26" y2="1547.35" xlink:href="#linear-gradient-22"/><linearGradient id="linear-gradient-24" x1="2304.57" y1="2337.79" x2="2376.03" y2="2233.53" gradientUnits="userSpaceOnUse"><stop offset="0" stop-color="#231f20"/><stop offset="1" stop-color="#fff"/></linearGradient><linearGradient id="linear-gradient-25" x1="2436.44" y1="2435.13" x2="2901.94" y2="1755.95" xlink:href="#linear-gradient-24"/><linearGradient id="linear-gradient-26" x1="1771.17" y1="2817.71" x2="1387.17" y2="2009.29" xlink:href="#linear-gradient"/><linearGradient id="linear-gradient-27" x1="2142.42" y1="3013.5" x2="1546.38" y2="1758.67" xlink:href="#linear-gradient"/><linearGradient id="linear-gradient-28" x1="2518.61" y1="2939.39" x2="1812.04" y2="1451.89" xlink:href="#linear-gradient"/><linearGradient id="linear-gradient-29" x1="2724.16" y1="-252.99" x2="2990.52" y2="245.38" gradientUnits="userSpaceOnUse"><stop offset="0" stop-color="#30dff2"/><stop offset="0.26" stop-color="#26c7e6"/><stop offset="0.8" stop-color="#0b8bc8"/><stop offset="1" stop-color="#0072bc"/></linearGradient><linearGradient id="linear-gradient-30" x1="2688.58" y1="395.86" x2="2477.19" y2="1019.44" xlink:href="#linear-gradient-29"/><linearGradient id="linear-gradient-31" x1="2681.67" y1="393.52" x2="2470.28" y2="1017.1" xlink:href="#linear-gradient-29"/><linearGradient id="linear-gradient-32" x1="2680.64" y1="393.17" x2="2469.25" y2="1016.75" xlink:href="#linear-gradient-29"/><linearGradient id="linear-gradient-33" x1="2703.17" y1="400.81" x2="2491.79" y2="1024.39" xlink:href="#linear-gradient-29"/></defs><g class="cls-1"><g id="Objects"><path class="cls-2" d="M3345.1,2875.66q-29.14-45.69-79.84-71.73t-114.23-26q-63.56,0-114.54,26t-79.84,71.73q-28.87,45.69-28.86,102.76t28.86,102.74q28.84,45.69,79.84,71.74t114.54,26q63.49,0,114.23-26t79.84-71.74q29.15-45.69,29.15-102.74T3345.1,2875.66Zm-83,167a116.3,116.3,0,0,1-45.76,44q-29.15,15.8-65.27,15.78t-65.29-15.78a116.3,116.3,0,0,1-45.76-44q-16.61-28.24-16.6-64.24t16.6-64.26a116.27,116.27,0,0,1,45.76-44q29.15-15.78,65.29-15.79t65.27,15.79a116.27,116.27,0,0,1,45.76,44q16.61,28.24,16.6,64.26T3262.06,3042.66Z"/><text class="cls-3" transform="translate(0 3178.92) scale(1.23 1)"><tspan xml:space="preserve">RAMPAG    E</tspan></text><path d="M1932.14,3421.09v-5.17c16-1.47,18-3.32,14.52-10.33-3.2-7.2-8.13-16.42-13.29-28.05h-53.16c-3.94,8.31-7.63,15.5-11.08,23.07-5.41,12-2,13.47,18.21,15.31v5.17h-56.85v-5.17c15.51-1.47,19.44-2.77,28.06-19.37l50.94-96.87,7.88-1.11c15.5,31.56,32.48,66.43,48,98.35,7.88,16,10.09,17.53,27.56,19v5.17Zm-24.62-98.35c-7.87,15.87-16.24,32.66-23.62,47.24h46Z"/><path d="M2130.49,3391.75c-1.47,4.8-8.12,23.8-10.58,29.34H2000.3v-5.17c22.89-1.29,24.61-3,24.61-18.08V3325c0-16.42-2.7-17.35-21.16-18.64v-5.16h75.31c23.13,0,32.73-.19,35.68-.37.25,4.61,1.23,18.45,2.22,28.23l-7.39.92a53.49,53.49,0,0,0-7.38-14c-3.94-6.09-9.6-7.38-24.36-7.38h-23.38c-7.63,0-8.13.55-8.13,5.9v40.78h27.32c18.46,0,19.69-2.77,22.64-15.32h7.63v38h-7.63c-3.19-13.28-5.16-15.13-22.88-15.13h-27.08v36.72c0,12.92,5.42,14,17.72,14.21h22.89c15,0,17.48-1.66,22.89-6.46,4.68-3.87,9.85-11.44,13.29-17Z"/><path d="M2293.66,3422.57c-3.2,0-5.91-.19-9.11-.37-18-.93-27.56-4.43-38.39-15.87-9.11-9.41-18-21-25.84-30.45-4.92-5.9-8.12-7-20.67-7H2191v29c0,15.68,2.71,16.61,22.4,18.08v5.17h-65.71v-5.17c20.42-1.66,22.15-2.4,22.15-18.08v-73.62c0-15.68-2.71-16.24-22.15-17.9v-5.16h62.75c18,0,30,1.66,39.38,6.27,10.09,4.8,16.74,13.1,16.74,24.36,0,15.86-13.54,25.83-31.75,31.73,4.43,5.72,15,18.08,22.39,26.39,9.11,9.78,13.79,14.39,19.45,19a38.78,38.78,0,0,0,18,8.49Zm-90.82-60c12.8,0,20.92-1.48,27.08-5.35,9.59-5.35,13.53-12.73,13.53-22.7,0-19.74-17.47-26.94-36.42-26.94-7.14,0-11.32.74-13.05,1.85-2.21,1.29-2.95,3.14-2.95,7.93v45.21Z"/><path d="M2303.25,3421.09v-5.17c20.18-1.66,22.15-2.4,22.15-18.08v-73.25c0-15.87-2-16.61-22.15-18.27v-5.16h66v5.16c-20.43,1.66-22.4,2.4-22.4,18.27v73.25c0,15.87,2,16.42,22.4,18.08v5.17Z"/><path d="M2480.94,3421.09v-5.17c16-1.47,18-3.32,14.52-10.33-3.2-7.2-8.12-16.42-13.29-28.05H2429c-3.94,8.31-7.63,15.5-11.08,23.07-5.41,12-2,13.47,18.22,15.31v5.17H2379.3v-5.17c15.5-1.47,19.44-2.77,28-19.37l51-96.87,7.87-1.11c15.51,31.56,32.49,66.43,48,98.35,7.88,16,10.09,17.53,27.57,19v5.17Zm-24.61-98.35c-7.88,15.87-16.25,32.66-23.63,47.24h46Z"/><path d="M2675.11,3390.46c-1.47,5.72-8.86,24.91-11.32,30.63H2549.35v-5.17c22.4-1.66,24.37-2.58,24.37-18.26v-73.25c0-15.69-2.46-16.61-22.15-18.09v-5.16h65.95v5.16c-19.69,1.48-22.39,2.22-22.39,18.09v75.09c0,11.26,2,13.84,16,14,.25,0,18,.19,19.45.19,12.55,0,16.24-1.11,21.9-5.72,6.15-4.8,11.32-12.18,15-19Z"/><path d="M2834.09,3329.2C2829.91,3317,2823,3305,2799.88,3305c-19.19,0-25.84,10.52-25.84,20.11,0,12.73,10.83,19.19,31.26,27.13,29.53,11.44,42.33,19.92,42.33,37.45,0,19.38-22.4,34.14-54.15,34.14-14.76,0-27.56-3.14-37.65-6.09-2-5.17-4.92-17.72-6.65-27.68l7.63-1.48c4.92,12.37,15.75,28.42,41.35,28.42,17.72,0,28.55-9.23,28.55-21.22,0-14.21-10.09-19.93-31.75-28.78-25.84-10.52-40.36-19.38-40.36-36.54,0-16.42,18.21-31.92,50.7-31.92,13.78,0,27.31,2.77,32.48,3.51,1,6.64,2,14,3.94,26Z"/><path d="M3034.91,3306.32c-15.5.74-21.16,3.69-21.66,12.18-.24,4.24-.73,12-.73,29v19.93c0,18.82-3,33.21-17.23,44.46-11.57,9-28.3,11.81-45.29,11.81-14.27,0-29.53-2.21-40.36-8.49-14.76-8.48-21.9-21.21-21.9-42.8v-47.05c0-16.61-2-17.72-21.66-19v-5.16h64.73v5.16c-19.69.93-21.66,2.4-21.66,19v46.13c0,26.93,17,41.69,46.51,41.69,35,0,46-16.23,46-46.86v-18.82c0-17-.74-24-1.23-29-.74-8.3-6.4-11.44-24.61-12.18v-5.16h59.06Z"/><path d="M3194.63,3422.57c-3.2,0-5.9-.19-9.1-.37-18-.93-27.57-4.43-38.4-15.87-9.1-9.41-18-21-25.84-30.45-4.92-5.9-8.12-7-20.67-7H3092v29c0,15.68,2.7,16.61,22.39,18.08v5.17h-65.71v-5.17c20.43-1.66,22.15-2.4,22.15-18.08v-73.62c0-15.68-2.71-16.24-22.15-17.9v-5.16h62.76c18,0,30,1.66,39.37,6.27,10.1,4.8,16.74,13.1,16.74,24.36,0,15.86-13.54,25.83-31.75,31.73,4.43,5.72,15,18.08,22.4,26.39,9.1,9.78,13.78,14.39,19.44,19a38.85,38.85,0,0,0,18,8.49Zm-90.81-60c12.8,0,20.92-1.48,27.07-5.35,9.6-5.35,13.54-12.73,13.54-22.7,0-19.74-17.48-26.94-36.43-26.94-7.14,0-11.32.74-13,1.85-2.22,1.29-2.95,3.14-2.95,7.93v45.21Z"/><path d="M3351.4,3306.32c-16.49,1.66-20.67,3.33-29.54,19.93-6.64,12.18-40.6,74-52.66,96.87h-8.12c-14.52-29.71-35.69-72.88-49.72-100.19-6.89-13.65-11.07-15.5-26.09-16.61v-5.16h62.52v5.16c-18.22,1.48-19.2,3.69-15.76,10.52,6.16,13.47,24.12,50.19,39.63,80.82,13-23.81,29.29-53.88,40.85-77.13,5.42-10.7,2.46-12.36-17.72-14.21v-5.16h56.61Z"/><path d="M3488.72,3391.75c-1.48,4.8-8.12,23.8-10.58,29.34H3358.53v-5.17c22.88-1.29,24.61-3,24.61-18.08V3325c0-16.42-2.71-17.35-21.17-18.64v-5.16h75.31c23.14,0,32.73-.19,35.69-.37.24,4.61,1.23,18.45,2.21,28.23l-7.38.92a54.1,54.1,0,0,0-7.38-14c-3.94-6.09-9.6-7.38-24.37-7.38h-23.38c-7.63,0-8.12.55-8.12,5.9v40.78h27.32c18.45,0,19.69-2.77,22.64-15.32h7.63v38h-7.63c-3.2-13.28-5.17-15.13-22.89-15.13h-27.07v36.72c0,12.92,5.41,14,17.72,14.21h22.89c15,0,17.47-1.66,22.88-6.46,4.68-3.87,9.85-11.44,13.29-17Z"/><path d="M3638.59,3306.32c-17.23,1.48-20.18,3.51-30,15.32-11.08,13.47-20.18,26.2-32.24,42.62-3,4.24-3.69,6.46-3.69,10.89v22.69c0,15.31,2.21,16.42,25.1,18.08v5.17H3527.1v-5.17c22.4-2.21,24.12-2.58,24.12-18.08V3374c0-3.69-1-5.35-4.92-10.7-8.61-12-17-23.62-30.27-41-9.6-12.55-12.06-14.77-28.79-16.06v-5.16h60.54v5.16c-17.72,1.85-16.74,4.25-12.31,10.52,10.34,14.21,21.91,30.81,32.24,44.65,8.86-12.36,22.89-32.47,29.78-42.62,5.66-9.22,4.92-11.07-14.52-12.55v-5.16h55.62Z"/><path d="M3733.09,3329.2C3728.9,3317,3722,3305,3698.88,3305c-19.2,0-25.84,10.52-25.84,20.11,0,12.73,10.83,19.19,31.25,27.13,29.54,11.44,42.33,19.92,42.33,37.45,0,19.38-22.39,34.14-54.14,34.14-14.77,0-27.56-3.14-37.65-6.09-2-5.17-4.93-17.72-6.65-27.68l7.63-1.48c4.92,12.37,15.75,28.42,41.35,28.42,17.72,0,28.55-9.23,28.55-21.22,0-14.21-10.09-19.93-31.75-28.78-25.84-10.52-40.36-19.38-40.36-36.54,0-16.42,18.21-31.92,50.69-31.92,13.79,0,27.32,2.77,32.49,3.51,1,6.64,2,14,3.94,26Z"/><path class="cls-4" d="M1215,1162.65c-70.49-32.53-87.44-49.14-107.3-72.9,30.13,28.51,92.47,54.27,122,63.57-50.19-130.92-119.7-84-203.6-138.38C1026.16,1014.94,1003.16,1184.84,1215,1162.65Z"/><path class="cls-5" d="M1037,1166.26s-23,169.9,188.85,147.7c-70.49-32.53-87.44-49.14-107.3-72.89,30.13,28.5,92.47,54.26,122,63.56C1190.42,1173.72,1120.91,1220.67,1037,1166.26Z"/><path class="cls-6" d="M1220.77,1027.94c-70.49-32.53-87.44-49.14-107.31-72.9,30.14,28.51,92.47,54.27,122,63.57-50.19-130.92-119.7-84-203.6-138.38C1031.91,880.23,1008.92,1050.13,1220.77,1027.94Z"/><path class="cls-7" d="M1309.16,1049.35c29.94-8,93.33-31.1,124.65-58.3-20.86,22.89-38.51,38.76-110.32,68.25,210.71,31.22,195-139.51,195-139.51C1432.33,970.57,1364.89,920.7,1309.16,1049.35Z"/><path class="cls-8" d="M1309.16,1184.18c29.94-8,93.33-31.1,124.65-58.3-20.86,22.89-38.51,38.76-110.32,68.25,210.71,31.22,195-139.51,195-139.51C1432.33,1105.41,1364.89,1055.53,1309.16,1184.18Z"/><path class="cls-9" d="M1308.36,917c141.15-139.59,13.31-235.88,13.31-235.88-31.58,89.35-113.63,86.36-47.84,226.33,16.61-33.21,30.44-64,34-109.13,2.92,26.7,3.7,48.6-9.69,96.06-.8,2.4-1.51,4.83-2.11,7.27s-1.45,4.84-2.22,7.35c-103.85,266.69-11.15,564.16-10.16,567.05l15.71-5.35C1298.37,1467.86,1208.27,1178.78,1308.36,917Z"/><path class="cls-10" d="M1309.16,1319c29.94-8,93.33-31.11,124.65-58.3-20.86,22.88-38.51,38.76-110.32,68.24,210.71,31.22,195-139.5,195-139.5C1432.33,1240.24,1364.89,1190.36,1309.16,1319Z"/><path class="cls-11" d="M1763.7,1264.94c-70.49-32.52-87.44-49.13-107.31-72.89,30.14,28.51,92.48,54.27,122,63.57-50.19-130.92-119.69-84-203.6-138.38C1574.84,1117.24,1551.85,1287.14,1763.7,1264.94Z"/><path class="cls-12" d="M1857.84,1151.65c30-8,93.33-31.11,124.65-58.3-20.86,22.89-38.5,38.76-110.31,68.25,210.71,31.21,195-139.51,195-139.51C1981,1072.87,1913.58,1023,1857.84,1151.65Z"/><path class="cls-13" d="M1769.45,1130.23c-70.49-32.52-87.43-49.13-107.3-72.89,30.13,28.51,92.47,54.27,122,63.57-50.19-130.92-119.7-84-203.6-138.38C1580.6,982.53,1557.6,1152.43,1769.45,1130.23Z"/><path class="cls-14" d="M1585.69,1268.56s-23,169.89,188.86,147.7c-70.49-32.53-87.44-49.14-107.31-72.9,30.14,28.51,92.48,54.27,122,63.57C1739.1,1276,1669.6,1323,1585.69,1268.56Z"/><path class="cls-15" d="M1857.84,1286.48c30-8,93.33-31.1,124.65-58.3-20.86,22.89-38.5,38.76-110.31,68.25,210.71,31.22,195-139.51,195-139.51C1981,1207.7,1913.58,1157.83,1857.84,1286.48Z"/><path class="cls-16" d="M1857.84,1421.31c30-8,93.33-31.1,124.65-58.3-20.86,22.89-38.5,38.76-110.31,68.25,210.71,31.22,195-139.51,195-139.51C1981,1342.54,1913.58,1292.66,1857.84,1421.31Z"/><path class="cls-17" d="M1857.05,1019.29c141.15-139.59,13.31-235.88,13.31-235.88-31.58,89.35-113.63,86.35-47.84,226.33,16.6-33.21,30.44-64,34-109.13,2.93,26.7,3.71,48.59-9.69,96.06-.8,2.4-1.51,4.82-2.1,7.27s-1.45,4.84-2.22,7.35c-103.85,266.69-11.16,564.16-10.16,567.05L1848,1573C1847.05,1570.16,1757,1281.08,1857.05,1019.29Z"/><path class="cls-18" d="M2392.88,1346.43c29.94-8,93.32-31.11,124.65-58.3-20.86,22.89-38.51,38.76-110.32,68.25,210.71,31.21,195-139.51,195-139.51C2516.05,1267.65,2448.61,1217.77,2392.88,1346.43Z"/><path class="cls-19" d="M2120.73,1463.33s-23,169.9,188.85,147.71c-70.49-32.53-87.44-49.14-107.3-72.9,30.13,28.51,92.47,54.27,122,63.57C2274.13,1470.79,2204.63,1517.75,2120.73,1463.33Z"/><path class="cls-20" d="M2304.49,1325c-70.49-32.52-87.44-49.13-107.31-72.89,30.14,28.51,92.47,54.27,122.05,63.56-50.19-130.91-119.7-84-203.6-138.37C2115.63,1177.31,2092.63,1347.21,2304.49,1325Z"/><path class="cls-21" d="M2298.73,1459.72c-70.49-32.52-87.44-49.13-107.3-72.89,30.13,28.51,92.47,54.27,122.05,63.56-50.2-130.91-119.7-84-203.6-138.37C2109.88,1312,2086.88,1481.92,2298.73,1459.72Z"/><path class="cls-22" d="M2392.88,1481.26c29.94-8,93.32-31.1,124.65-58.3-20.86,22.89-38.51,38.76-110.32,68.25,210.71,31.21,195-139.51,195-139.51C2516.05,1402.48,2448.61,1352.61,2392.88,1481.26Z"/><path class="cls-23" d="M2392.88,1616.09c29.94-8,93.32-31.1,124.65-58.3-20.86,22.89-38.51,38.76-110.32,68.25,210.71,31.22,195-139.51,195-139.51C2516.05,1537.32,2448.61,1487.44,2392.88,1616.09Z"/><path class="cls-24" d="M2392.08,1214.07c141.15-139.59,13.31-235.88,13.31-235.88-31.58,89.34-113.63,86.35-47.84,226.33,16.61-33.21,30.44-64,34-109.13,2.93,26.7,3.71,48.59-9.69,96.06-.79,2.4-1.5,4.82-2.1,7.27s-1.45,4.83-2.22,7.35c-103.85,266.68-11.15,564.16-10.16,567.05l15.71-5.35C2382.09,1764.94,2292,1475.86,2392.08,1214.07Z"/><path class="cls-25" d="M2895.16,2532.27l0,0c-7.44,3.34-15.07,6.69-22.69,9.85-22.88,9.68-45.94,18.6-69.19,27.16L2335.6,2278.61l-.27-.21-.18-.18q-48.83-38.23-99.33-74.21c-84.81-59.52-172-115-261-166.84q-67.8-38.79-136.7-75l-.05,0a1690.64,1690.64,0,0,1,157.14-99.49l0,0,0,0c23.62,13,47.06,26.42,70.49,39.8,92.63,52.83,182.47,110.12,270.63,169.45,87.79,59.89,173,123.31,255.74,189.34A3883.36,3883.36,0,0,1,2895.16,2532.27Z"/><path class="cls-26" d="M2519.4,1823.46c-42,17.3-83.89,35.52-126.11,53l32,67.33c53.38-25.48,106.21-52.45,160.14-76.82l5.21-2.23.13-.06,75.94-33.23c13.58-6,27-12.09,40.74-17.67l41.29-16.37,82.77-32.55,83.7-29.94,42-14.7,42.22-13.58,85-26.6c114-33.1,229.52-61.37,346.51-83,91.51-16.55,184.13-30.31,277.13-36.64q-11.16,46.88-25.66,92.25c-70.31,15.63-140.06,34.23-209.43,54.5-87.8,26-175.21,54.68-261,89.09-21.57,8.19-42.78,17.49-64,26.6-21.2,9.3-42.78,17.86-63.42,28.45l-62.87,30.51-61.56,33.85c-50.21,29.2-99.67,61-146.53,97.62l0,0a889.62,889.62,0,0,0-83.51,73.84l83.7,73.65a791.33,791.33,0,0,1,80.9-85l0,0c34.41-31.79,72-61.54,110.64-89.62l54.87-37.94,57.1-35.34c18.79-12.09,38.88-22.5,58.41-33.67,19.71-11,39.24-22.13,59.51-32.17,80-42,162.94-79,247-113.64,65.09-26.41,131.12-51.52,197.89-74a1357.48,1357.48,0,0,1-56.35,147.68c-32.74,16.37-65.1,33.67-97.28,51.34q-104.34,57.46-204.78,123.31c-66.59,43.89-131.13,91.88-194,142.85-29.73,24.71-58.91,50.72-87.15,77.67l-.08.07c-30.7,29.39-60.64,59.89-89.28,92.07l88,68.44q33.47-47.4,71-92.77s0,0,0,0q35.43-43,74.58-84.08a2272,2272,0,0,1,170.37-159.58q89.84-75.6,186.18-144.33c23.25-16.55,46.69-32.92,70.31-48.55a1436.87,1436.87,0,0,1-420.68,522.42l-.05,0c-13,10.05-26.22,19.91-39.42,29.39-13.4,9.67-27,19-40.55,28.09-13,8.74-26.23,17.29-39.43,25.48-1.86,1.3-3.91,2.42-5.77,3.53-11.72,7.25-23.44,14.33-35.34,21.2-1.1.55-2.2,1.29-3.31,1.84a3967.62,3967.62,0,0,0-366.38-295q-133.64-94.31-273.41-178.38c-93.74-55.24-188.41-108.25-285.69-156.42-9.67-4.83-19.53-9.67-29.39-14.32l0,0c76.25-39.23,155.85-74,237.12-105.44h0q20-7.74,40.22-15.16,7.85-2.91,15.71-5.75c533.37-193.29,1124.62-237,1365.22-247.1q-8.66,55-21.58,108.63c-93.74,1.48-187.67,10.23-280.85,22.13-118.66,15.62-236.59,37.94-353.21,65.47l-87.23,22.32L2944.21,1678l-43.15,12.65-86.3,25.85-85.37,28.64-42.78,14.32c-14.14,5-28.09,10.61-42.22,15.82l-84.45,31.8c-13.51,5.37-26.85,10.74-40.36,16.3Z"/><path class="cls-27" d="M2895.16,2532.27l0,0c-7.44,3.34-15.07,6.69-22.69,9.85-22.88,9.68-45.94,18.6-69.19,27.16L2335.6,2278.61l-.27-.21-.18-.18q-48.83-38.23-99.33-74.21c-84.81-59.52-172-115-261-166.84q-67.8-38.79-136.7-75l-.05,0a1690.64,1690.64,0,0,1,157.14-99.49l0,0,0,0c23.62,13,47.06,26.42,70.49,39.8,92.63,52.83,182.47,110.12,270.63,169.45,87.79,59.89,173,123.31,255.74,189.34A3883.36,3883.36,0,0,1,2895.16,2532.27Z"/><path class="cls-28" d="M2519.4,1823.46c-42,17.3-83.89,35.52-126.11,53l32,67.33c53.38-25.48,106.21-52.45,160.14-76.82l5.21-2.23.13-.06,75.94-33.23c13.58-6,27-12.09,40.74-17.67l41.29-16.37,82.77-32.55,83.7-29.94,42-14.7,42.22-13.58,85-26.6c114-33.1,229.52-61.37,346.51-83,91.51-16.55,184.13-30.31,277.13-36.64q-11.16,46.88-25.66,92.25c-70.31,15.63-140.06,34.23-209.43,54.5-87.8,26-175.21,54.68-261,89.09-21.57,8.19-42.78,17.49-64,26.6-21.2,9.3-42.78,17.86-63.42,28.45l-62.87,30.51-61.56,33.85c-50.21,29.2-99.67,61-146.53,97.62l0,0a889.62,889.62,0,0,0-83.51,73.84l83.7,73.65a791.33,791.33,0,0,1,80.9-85l0,0c34.41-31.79,72-61.54,110.64-89.62l54.87-37.94,57.1-35.34c18.79-12.09,38.88-22.5,58.41-33.67,19.71-11,39.24-22.13,59.51-32.17,80-42,162.94-79,247-113.64,65.09-26.41,131.12-51.52,197.89-74a1357.48,1357.48,0,0,1-56.35,147.68c-32.74,16.37-65.1,33.67-97.28,51.34q-104.34,57.46-204.78,123.31c-66.59,43.89-131.13,91.88-194,142.85-29.73,24.71-58.91,50.72-87.15,77.67l-.08.07c-30.7,29.39-60.64,59.89-89.28,92.07l88,68.44q33.47-47.4,71-92.77s0,0,0,0q35.43-43,74.58-84.08a2272,2272,0,0,1,170.37-159.58q89.84-75.6,186.18-144.33c23.25-16.55,46.69-32.92,70.31-48.55a1436.87,1436.87,0,0,1-420.68,522.42l-.05,0c-13,10.05-26.22,19.91-39.42,29.39-13.4,9.67-27,19-40.55,28.09-13,8.74-26.23,17.29-39.43,25.48-1.86,1.3-3.91,2.42-5.77,3.53-11.72,7.25-23.44,14.33-35.34,21.2-1.1.55-2.2,1.29-3.31,1.84a3967.62,3967.62,0,0,0-366.38-295q-133.64-94.31-273.41-178.38c-93.74-55.24-188.41-108.25-285.69-156.42-9.67-4.83-19.53-9.67-29.39-14.32l0,0c76.25-39.23,155.85-74,237.12-105.44h0q20-7.74,40.22-15.16,7.85-2.91,15.71-5.75c533.37-193.29,1124.62-237,1365.22-247.1q-8.66,55-21.58,108.63c-93.74,1.48-187.67,10.23-280.85,22.13-118.66,15.62-236.59,37.94-353.21,65.47l-87.23,22.32L2944.21,1678l-43.15,12.65-86.3,25.85-85.37,28.64-42.78,14.32c-14.14,5-28.09,10.61-42.22,15.82l-84.45,31.8c-13.51,5.37-26.85,10.74-40.36,16.3Z"/><path class="cls-29" d="M1884.48,2520.57c23.62,28.46,46.5,57.47,67.89,87-390.59-102.48-716.09-365.47-901.34-714.41,74.4,38.32,147.13,79.61,218.55,122.76,114.94,70.12,225.61,146.38,329.58,230.08C1703,2329.55,1800,2420.87,1884.48,2520.57Z"/><path class="cls-30" d="M2392.8,2488.76q69.75,72.54,132.62,150.29a1461.13,1461.13,0,0,1-209.06,15.06,1445,1445,0,0,1-171.3-10.23c-11-15.43-22.14-30.68-33.67-45.57-43.89-56.17-91.51-108.25-141.35-157.53C1869.6,2343.13,1759.86,2258.5,1645.1,2183c-114.76-75.33-234.35-141.92-356.92-201.25-81.28-39.06-163.68-75.7-247.38-108.25A1409.32,1409.32,0,0,1,940,1618.68c158.47,54.49,312.85,119.59,463.5,191.2,183,86.86,359.72,186.56,527.12,298.34q125,84.53,241.79,178.93A2910.16,2910.16,0,0,1,2392.8,2488.76Z"/><path class="cls-31" d="M3191.07,2355.92q-39.66-44.25-80.78-85.85-34.36-34.8-69.65-67.81-71.31-66.75-145.88-126.44-40.16-32.24-81.08-62.49c-73-54-147.53-103.44-222.92-148.64q-35.48-21.27-71.18-41.3-70.73-39.73-141.94-74.8-9.75-4.81-19.5-9.55-24.33-11.8-48.66-23.09h0c-159.82-74.19-319.07-132-470.59-177q-9.16-2.73-18.29-5.39c-197.35-57.59-381-93.58-534.81-116.07q-8.8-1.29-17.48-2.51c-172.07-24.38-304.94-31.76-375.15-34,2.24,19.71,4.65,39.24,7.82,58.58,97.64,14.51,194.55,35.53,290.52,59.15,104.53,25.85,208.13,56.17,310.8,90a4399.59,4399.59,0,0,1,570,232.66l0,0c9.86,4.65,19.72,9.49,29.39,14.32,97.28,48.17,192,101.18,285.69,156.42q139.78,83.7,273.41,178.38a3967.62,3967.62,0,0,1,366.38,295l0,0c1.12-.55,2.24-1.3,3.35-1.86,11.91-6.87,23.62-14,35.34-21.2,1.86-1.11,3.91-2.23,5.77-3.53,13.2-8.19,26.41-16.74,39.43-25.48,13.57-9.12,27.15-18.42,40.54-28.09,13.21-9.48,26.42-19.34,39.44-29.39Zm-598.88-94.63c-82.77-66-168-129.45-255.74-189.34-88.16-59.33-178-116.62-270.63-169.45-23.43-13.38-46.87-26.78-70.49-39.8l0,0a4406.49,4406.49,0,0,0-506-238.42c-99.51-39.43-200.5-75.52-302.8-107.32-93.93-29-188.79-55.61-285.32-75.7a1410.68,1410.68,0,0,0,36.46,168.88c163.67,44.08,324.56,99.14,482.66,161.26a4285.16,4285.16,0,0,1,417.88,190.81l.05,0q68.91,36.27,136.7,75c88.91,51.89,176.14,107.32,261,166.84q50.5,36,99.33,74.21l.18.18.27.21q73.8,57.39,144.25,119.57a2427.7,2427.7,0,0,1,204,208.32q60.81-15.9,119.4-37.2c23.25-8.56,46.32-17.48,69.2-27.16,7.62-3.16,15.25-6.51,22.69-9.85l0,0A3883.36,3883.36,0,0,0,2592.19,2261.29Z"/><path class="cls-32" d="M2988.84,29.76H2730.62a27,27,0,0,0-10.54,2.14l148.36,19.79,133.86-18.2A26.65,26.65,0,0,0,2988.84,29.76Zm.11,141.09c1.09.11,11.56,1.39,26.84,7.78V157.77l-147.37,19.65-147,19.61,1.46,13.18a65.16,65.16,0,0,0-14.23,4.09,26.87,26.87,0,0,0,22,11.44h258.22a26.86,26.86,0,0,0,18.63-7.53c-13-6.52-22-7.89-22.89-8l1.86-16.74Zm-283.63-15.6-1.65-.22v19.24c.53-.16,1.14-.38,1.65-.53a82.07,82.07,0,0,1,13.18-2.89l2.91,26.18,147-19.61Zm-1.65-98.54V155l1.65.22V47.75A26.62,26.62,0,0,0,2703.67,56.71ZM3327,112.83l-.3,0L3201.35,96.07,3016.58,71.44v86.23L3327,116.27a1.74,1.74,0,0,0,0-3.44Zm-607-80.93a26.93,26.93,0,0,0-14.76,15.85V73.86l163.12-22.17Zm-14.76,123.35v18.49a82.07,82.07,0,0,1,13.18-2.89l2.91,26.18,147-19.61Zm310.47,2.52v20.86l.79.35V157.67ZM2533.74,97.18l-125.38,17a.33.33,0,0,0-.29.33.35.35,0,0,0,.29.33L2703.67,155V74.09Zm169.93-23.09V155l1.65.22V73.86Zm164.75,103.33,118,16.05,2.51-22.62c1.09.11,11.56,1.39,26.84,7.78V157.77ZM3002.3,33.49l-133.86,18.2,147.35,19.64V56.71A26.83,26.83,0,0,0,3002.3,33.49Zm13.49,37.84L2868.44,51.69,2705.32,73.86v81.39l163.1,22.17,147.37-19.65.79-.1V71.44ZM2868.44,51.69,2705.32,73.86v81.39l163.1,22.17,147.37-19.65V71.33Zm332.91,25.57V96.07l125.38,16.72V77.26Zm0,18.81v18.59h125.38v-1.87Zm25-64.31V77h75.89V31.76Zm57-4.71c-6.34-.26-12.68-.06-19,2-6.73-2.15-13.47-2.24-20.21-1.91v4.52h40.42V26.93ZM3244.1,0V27.1c6.74-.33,13.48-.24,20.21,1.91V2.61c6.34,2,12.67,2.21,19,2l1.2-.05V0Zm20.21,29,19-2C3277,26.79,3270.65,27,3264.31,29Zm0-26.4c6.34,2,12.67,2.21,19,2Zm20.21,24.32v.17c3.94.2,7.88.5,11.83.73,10.67,1.08,21.35-.82,32-1.82,21.35-2.51,42.71-5.63,64.06-10.2Zm43.86-21.32c-10.68-1-21.36-2.91-32-1.82-3.95.23-7.89.53-11.83.73l-1.2.05c-6.34.25-12.67.06-19-2V29c6.34-2,12.68-2.22,19-2l1.19-.12,107.92-11.12C3371.09,11.24,3349.73,8.12,3328.38,5.61Zm-45.05,21.44,1.19.05v-.17Zm0-22.48,1.2.12V4.52Zm1.2.12-1.2-.12c-6.34.25-12.67.06-19-2V29c6.34-2,12.68-2.22,19-2l1.19-.12,107.92-11.12Zm-1.2-.12c-6.34.25-12.67.06-19-2V29c6.34-2,12.68-2.22,19-2l1.19-.12V4.69Zm-51-.78c-10.68-1.09-21.36.82-32,1.82-21.36,2.51-42.71,5.63-64.07,10.2,21.36,4.57,42.71,7.69,64.07,10.2,10.67,1,21.35,2.9,32,1.82,3.94-.23,7.88-.53,11.82-.73V4.52C3240.16,4.32,3236.22,4,3232.28,3.79Zm11.82.73V27.1c6.74-.33,13.48-.24,20.21,1.91V2.61C3257.58,4.76,3250.84,4.85,3244.1,4.52ZM2408.36,77.26v37l125.38-17V77.26Zm0,37v.43h125.38V97.18Zm25-82.47V77h75.89V31.76ZM2451.12,0V27.1c6.74-.33,13.47-.24,20.21,1.91V2.61c6.33,2,12.67,2.21,19,2l1.21-.05V0Zm39.22,27.05c-6.34-.26-12.67-.06-19,2-6.74-2.15-13.47-2.24-20.21-1.91v4.52h40.42V26.93Zm-19,2,19-2C2484,26.79,2477.67,27,2471.33,29Zm0-26.4c6.33,2,12.67,2.21,19,2Zm20.21,24.32v.17c3.94.2,7.88.5,11.82.73,10.68,1.08,21.36-.82,32-1.82,21.36-2.51,42.72-5.63,64.07-10.2Zm43.85-21.32c-10.67-1-21.35-2.91-32-1.82-3.94.23-7.88.53-11.82.73l-1.21.05c-6.33.25-12.67.06-19-2V29c6.34-2,12.67-2.22,19-2l1.2-.12,107.92-11.12C2578.11,11.24,2556.75,8.12,2535.39,5.61Zm-45,21.44,1.2.05v-.17Zm0-22.48,1.21.12V4.52Zm1.21.12-1.21-.12c-6.33.25-12.67.06-19-2V29c6.34-2,12.67-2.22,19-2l1.2-.12,107.92-11.12Zm-1.21-.12c-6.33.25-12.67.06-19-2V29c6.34-2,12.67-2.22,19-2l1.2-.12V4.69Zm-51-.78c-10.67-1.09-21.35.82-32,1.82-21.35,2.51-42.71,5.63-64.06,10.2,21.35,4.57,42.71,7.69,64.06,10.2,10.68,1,21.36,2.9,32,1.82,3.95-.23,7.89-.53,11.83-.73V4.52C2447.18,4.32,2443.24,4,2439.29,3.79Zm11.83.73V27.1c6.74-.33,13.47-.24,20.21,1.91V2.61C2464.59,4.76,2457.86,4.85,2451.12,4.52Zm458.77,247.61a43.84,43.84,0,0,0-26.4-26.39H2775.71v10.45a16,16,0,0,0,15.95,15.95H2860a15.54,15.54,0,0,1,17.27,0h32.61Zm-26.4-26.39a43.84,43.84,0,0,1,26.4,26.39h32.17a16,16,0,0,0,16-15.95V225.74Zm-107.78-2.47v2.47h78.09a43.39,43.39,0,0,1,12.11-2.47Zm90.2,0a43.39,43.39,0,0,0-12.11,2.47H2958v-2.47Zm2.73-.28c-.93,0-1.81.22-2.73.28h5.47C2870.45,223.21,2869.58,223,2868.64,223Zm14.85,2.75H2853.8a43.84,43.84,0,0,0-26.4,26.39H2860a15.54,15.54,0,0,1,17.27,0h32.61A43.84,43.84,0,0,0,2883.49,225.74Zm-12.11-2.47h-5.47a43.39,43.39,0,0,0-12.11,2.47h29.69A43.46,43.46,0,0,0,2871.38,223.27Zm38.51,28.87H2877.3a17.24,17.24,0,0,1,8.81,14.84,17.46,17.46,0,0,1-34.92,0,17.23,17.23,0,0,1,8.8-14.84H2827.4a44,44,0,1,0,82.49,0ZM2989,170.85l-2.51,22.62-1.86,16.74c.86.11,9.88,1.48,22.89,8a26.83,26.83,0,0,0,8.32-19.42V178.63C3000.51,172.24,2990,171,2989,170.85Zm26.84,7.78v18.83l.79.1V179ZM2989,170.85l-2.51,22.62,29.35,4V178.63C3000.51,172.24,2990,171,2989,170.85ZM2721.41,197l-2.91-26.18a82.07,82.07,0,0,0-13.18,2.89c-.51.15-1.12.37-1.65.53v24.52a26.72,26.72,0,0,0,5,15.51,65.16,65.16,0,0,1,14.23-4.09Zm-2.91-26.18a82.07,82.07,0,0,0-13.18,2.89v25.43l16.09-2.14Z"/><path class="cls-33" d="M2822.08,621.23c-343,0-476-234.14-477.46-236.8A23.3,23.3,0,0,1,2385.45,362c6.31,11.33,155,269.1,565.9,201.67a23.31,23.31,0,0,1,7.53,46A846.75,846.75,0,0,1,2822.08,621.23Z"/><path class="cls-34" d="M2812.87,755.49c-468.6,0-643-350.88-645-355a23.3,23.3,0,0,1,42-20.18c8.88,18.43,225.31,449.84,856.59,296.19a23.29,23.29,0,1,1,11,45.27C2980.39,745.37,2892.39,755.49,2812.87,755.49Z"/><path class="cls-35" d="M2868.5,900.52c-457.37,0-730.52-285.85-836.77-425.84a23.3,23.3,0,1,1,37.11-28.17c120.33,158.56,464.58,512.72,1060.59,376.86a23.29,23.29,0,1,1,10.35,45.41C3043.05,890.82,2952.65,900.52,2868.5,900.52Z"/><path class="cls-36" d="M2898.8,1021.88c-672.84,0-1027.38-512.53-1031.53-518.7a23.29,23.29,0,0,1,38.62-26.05c4.76,7.06,486.87,701.93,1395.06,438.29a23.28,23.28,0,1,1,13,44.72C3164.36,1003.59,3025.89,1021.88,2898.8,1021.88Z"/><path class="cls-37" d="M4032.1,2779.56c-9.91,2.13-11.32,3.82-15.15,21.23-4.67,21.23-16,75.15-23.79,113.15h-4.81c-7.36-33.12-16.85-74.09-24.21-105.51-8.22,36.52-16.57,72.81-23.93,105.51h-4.68c-7.08-36.52-15.15-76.21-22.8-113.36-3.68-17.2-5.23-19.53-14.44-21v-5.94h35v5.94c-10.48,1.7-10.76,4-8.78,14.65,5.52,28.66,11.18,56.89,17,86.82,7.79-33.75,16.28-70.69,23.51-105.5h4.53c7.93,36.09,15.86,69.63,24.07,105.71,5.95-28.23,14-66,17.13-84.48,2.13-12.31,1-15.07-11-17.2v-5.94h32.42Z"/><path class="cls-37" d="M4084.49,2770.65c24.22,0,45.88,27.81,45.88,70,0,45.64-20.67,74.09-46.73,74.09-27.18,0-47-31-47-70.91C4036.63,2805.89,4054.61,2770.65,4084.49,2770.65Zm-2.83,7.85c-15.86,0-30.3,20-30.3,59.65,0,39.49,14.44,68.57,34.55,68.57,17.13,0,30-19.11,30-60.08C4115.93,2802.06,4100.21,2778.5,4081.66,2778.5Z"/><path class="cls-37" d="M4193.94,2770.65c24.22,0,45.88,27.81,45.88,70,0,45.64-20.67,74.09-46.72,74.09-27.19,0-47-31-47-70.91C4146.08,2805.89,4164.07,2770.65,4193.94,2770.65Zm-2.83,7.85c-15.86,0-30.3,20-30.3,59.65,0,39.49,14.44,68.57,34.55,68.57,17.13,0,30-19.11,30-60.08C4225.38,2802.06,4209.66,2778.5,4191.11,2778.5Z"/><path class="cls-37" d="M4292.92,2773.62c20,0,32.57,5.94,41.35,18.47,6.93,10.19,12,25,12,45.43,0,24.83-6.79,45-17.7,57.31-10.76,12.1-24.5,16.77-41.91,16.77h-33.14v-5.94c12.18-1.7,12.75-3.19,12.75-20.59v-84.7c0-18.26-1.7-19.11-12.75-20.81v-5.94Zm-14.3,109.75c0,15.92,4.53,20.38,15.15,20.38,25.49,0,38.51-26.11,38.51-63.26,0-23.14-5.24-40.76-16.42-50.95-6.52-6.16-14.73-8.49-24.22-8.49-6.37,0-9.77,1.27-11.18,3-1.28,1.27-1.84,3.61-1.84,11.89Z"/><path class="cls-37" d="M4360,2911.6v-5.94c11.61-1.91,12.75-2.76,12.75-20.81v-84.27c0-18.26-1.14-19.11-12.75-21v-5.94H4398v5.94c-11.75,1.91-12.88,2.76-12.88,21v84.27c0,18.26,1.13,18.9,12.88,20.81v5.94Z"/><path class="cls-37" d="M4510.13,2779.56c-9.07,1.49-12,3.61-12.46,13.38-.15,6.79-.43,15.71-.43,35.45v85.12h-5.38l-60.61-111v53.07c0,19.1.43,28.66.71,34.81.29,10.83,3.83,14,14,15.29v5.94h-34.41v-5.94c8.78-1.06,12.18-4.25,12.75-14.65.42-6.79.7-16.35.7-35.66v-54.13c0-5.95-.28-9.35-2.83-14-2.69-5.3-5.66-6.58-12.6-7.64v-5.94h21.24l60,106.78v-52c0-19.74-.28-28.87-.71-35.24-.42-9.55-3.68-12.53-15-13.59v-5.94h35Z"/><path class="cls-37" d="M4613.49,2853.65c-8.78,1.7-9.34,3-9.34,15.5V2887a175.68,175.68,0,0,0,.84,20.16c-8.77,3-20.24,7.65-32.14,7.65-32.14,0-51.68-29.94-51.68-72.6,0-44.8,24.35-71.54,52.67-71.54,14.45,0,25.07,4.24,29.46,5.3.28,7.86,1,20.81,2.12,34.18l-4.25,1.27c-3.4-18-7.5-25.68-16.42-30.14-3.26-1.7-9.07-2.76-13.17-2.76-21.67,0-35.69,22.29-35.69,61.14,0,33.75,11.61,67.29,39.09,67.29a20.53,20.53,0,0,0,12-3.61c3-2.54,4.82-4.88,4.82-13.58v-17.41c0-15.5-1.14-17.2-14.73-18.68v-6.16h36.39Z"/><path class="cls-37" d="M3997.55,3108.39c-8.78,1.7-9.34,3-9.34,15.5v17.83a173.43,173.43,0,0,0,.85,20.17c-8.78,3-20.25,7.64-32.15,7.64-32.14,0-51.68-29.93-51.68-72.6,0-44.79,24.36-71.54,52.68-71.54,14.44,0,25.06,4.25,29.45,5.31.28,7.85,1,20.8,2.12,34.18l-4.25,1.27c-3.39-18-7.5-25.69-16.42-30.14-3.26-1.7-9.06-2.76-13.17-2.76-21.66,0-35.68,22.28-35.68,61.13,0,33.75,11.61,67.3,39.08,67.3a20.6,20.6,0,0,0,12-3.61c3-2.55,4.82-4.89,4.82-13.59v-17.41c0-15.49-1.13-17.19-14.73-18.68v-6.15h36.39Z"/><path class="cls-37" d="M4082.09,3132.59c-.85,5.52-4.68,27.39-6.09,33.76h-68.82v-5.95c13.17-1.48,14.16-3.39,14.16-20.8v-83.85c0-18.9-1.56-20-12.18-21.44v-5.95h43.33c13.31,0,18.83-.21,20.53-.42.14,5.31.71,21.23,1.28,32.48l-4.25,1.06a93.86,93.86,0,0,0-4.25-16.13c-2.26-7-5.52-8.5-14-8.5h-13.45c-4.39,0-4.67.64-4.67,6.8v46.91h15.72c10.62,0,11.32-3.18,13-17.62h4.39v43.73h-4.39c-1.84-15.28-3-17.4-13.17-17.4h-15.57v42.24c0,14.86,3.11,16.13,10.19,16.34H4057c8.64,0,10.06-1.91,13.17-7.43,2.69-4.45,5.66-13.16,7.65-19.53Z"/><path class="cls-37" d="M4140,3025.39c24.21,0,45.88,27.81,45.88,70.05,0,45.64-20.68,74.09-46.73,74.09-27.19,0-47-31-47-70.9C4092.14,3060.63,4110.12,3025.39,4140,3025.39Zm-2.84,7.86c-15.85,0-30.3,19.95-30.3,59.65,0,39.48,14.45,68.56,34.55,68.56,17.14,0,30-19.1,30-60.07C4171.43,3056.81,4155.71,3033.25,4137.16,3033.25Z"/><path class="cls-37" d="M4248.88,3060.63c-2.4-14-6.37-27.81-19.68-27.81-11,0-14.87,12.1-14.87,23.14,0,14.65,6.23,22.08,18,31.2,17,13.17,24.35,22.93,24.35,43.1,0,22.29-12.88,39.27-31.15,39.27-8.5,0-15.86-3.61-21.67-7-1.13-5.94-2.83-20.37-3.82-31.84l4.39-1.7c2.83,14.23,9.06,32.7,23.79,32.7,10.19,0,16.43-10.62,16.43-24.42,0-16.34-5.81-22.92-18.27-33.11-14.87-12.1-23.22-22.29-23.22-42,0-18.9,10.47-36.73,29.17-36.73,7.93,0,15.71,3.19,18.69,4,.56,7.65,1.13,16.14,2.26,29.94Z"/><path class="cls-37" d="M4305.38,3028.36c10.05,0,18.12,2.76,23.93,9.13,5.52,6.16,9.34,16.13,9.34,30.15,0,31-17.7,43.51-31.15,43.51a16.94,16.94,0,0,1-3.82-.42l-9.77-3.82V3140c0,17.83,1,18.26,14,20.38v5.95h-39.08v-5.95c12.17-1.91,12.74-3.18,12.74-20.8v-84.28c0-18.89-1.56-19.31-12.74-21v-5.95Zm-11.47,71.12c1.7,1.27,5.52,2.76,10.34,2.76,9.48,0,21.24-7.22,21.24-34,0-23.35-10.2-32.69-22.09-32.69-4.11,0-7.08,1.06-7.93,2.55-1.14,1.48-1.56,4-1.56,9.76Z"/><path class="cls-37" d="M4391.9,3166.35v-5.95c9.2-1.7,10.33-3.82,8.35-11.89-1.84-8.27-4.67-18.89-7.65-32.26H4362c-2.27,9.55-4.39,17.83-6.37,26.53-3.12,13.8-1.14,15.5,10.47,17.62v5.95h-32.71v-5.95c8.92-1.7,11.19-3.18,16.15-22.29l29.31-111.45,4.53-1.27c8.92,36.3,18.69,76.42,27.61,113.15,4.53,18.47,5.81,20.16,15.86,21.86v5.95Zm-14.17-113.15c-4.53,18.26-9.34,37.57-13.59,54.34h26.48Z"/><path class="cls-37" d="M4495.69,3061.69c-1.28-6.79-3-13.8-4.54-17.62-2.26-5.73-3.68-7.22-11.46-7.22h-14.17v103.39c0,16.55,1.14,18.89,14.59,20.16v5.95H4438.9v-5.95c13.17-1.27,14.31-3.39,14.31-20.16V3036.85h-12.89c-7.79,0-10,1.28-12.46,7.65-1.7,4.24-2.83,9.34-4.67,17.19h-4.25c.85-13,1.7-26.32,2.12-38.21h3.26c2.12,5.1,3.68,4.88,7.65,4.88H4488c4,0,5.1-.85,7.22-4.88h3.4c0,10,.57,25.26,1.27,37.57Z"/><path class="cls-37" d="M4511.54,3166.35v-5.95c11.61-1.91,12.75-2.76,12.75-20.8v-84.28c0-18.25-1.14-19.1-12.75-21v-5.95h37.95v5.95c-11.75,1.91-12.89,2.76-12.89,21v84.28c0,18.25,1.14,18.89,12.89,20.8v5.95Z"/><path class="cls-37" d="M4613.78,3166.35v-5.95c9.2-1.7,10.33-3.82,8.35-11.89-1.84-8.27-4.67-18.89-7.65-32.26H4583.9c-2.27,9.55-4.39,17.83-6.37,26.53-3.12,13.8-1.14,15.5,10.47,17.62v5.95h-32.71v-5.95c8.93-1.7,11.19-3.18,16.15-22.29l29.31-111.45,4.53-1.27c8.92,36.3,18.69,76.42,27.61,113.15,4.53,18.47,5.81,20.16,15.86,21.86v5.95Zm-14.16-113.15c-4.54,18.26-9.35,37.57-13.6,54.34h26.48Z"/><path class="cls-37" d="M4725.5,3131.11c-.85,6.58-5.1,28.65-6.52,35.24h-65.84v-5.95c12.88-1.91,14-3,14-21v-84.28c0-18-1.42-19.1-12.75-20.8v-5.95h37.95v5.95c-11.33,1.7-12.88,2.54-12.88,20.8v86.4c0,12.95,1.13,15.92,9.2,16.13.14,0,10.34.21,11.19.21,7.22,0,9.34-1.27,12.6-6.58,3.54-5.52,6.51-14,8.64-21.86Z"/><path class="cls-37" d="M3954.22,3315.37c-2.4-14-6.37-27.81-19.68-27.81-11,0-14.87,12.1-14.87,23.14,0,14.65,6.23,22.08,18,31.21,17,13.16,24.35,22.92,24.35,43.09,0,22.29-12.88,39.27-31.15,39.27-8.5,0-15.86-3.61-21.67-7-1.13-5.95-2.83-20.38-3.82-31.84l4.39-1.7c2.83,14.22,9.06,32.69,23.79,32.69,10.2,0,16.43-10.62,16.43-24.41,0-16.35-5.81-22.93-18.27-33.12-14.87-12.1-23.22-22.29-23.22-42,0-18.89,10.48-36.73,29.17-36.73,7.93,0,15.71,3.19,18.69,4,.56,7.64,1.13,16.13,2.26,29.93Z"/><path class="cls-37" d="M4024.88,3280.13c24.21,0,45.88,27.81,45.88,70.06,0,45.64-20.68,74.08-46.73,74.08-27.19,0-47-31-47-70.9C3977,3315.37,3995,3280.13,4024.88,3280.13Zm-2.83,7.86c-15.86,0-30.31,20-30.31,59.65,0,39.48,14.45,68.57,34.56,68.57,17.13,0,30-19.11,30-60.08C4056.31,3311.55,4040.6,3288,4022.05,3288Z"/><path class="cls-37" d="M4155.57,3385.85c-.85,6.58-5.1,28.66-6.51,35.24h-65.85v-6c12.89-1.91,14-3,14-21v-84.28c0-18-1.41-19.1-12.74-20.8v-5.94h37.95v5.94c-11.33,1.7-12.89,2.55-12.89,20.8v86.4c0,12.95,1.13,15.92,9.21,16.14.14,0,10.33.21,11.18.21,7.22,0,9.35-1.28,12.6-6.58,3.54-5.52,6.52-14,8.64-21.87Z"/><path class="cls-37" d="M4256,3289.05c-8.93.85-12.18,4.25-12.47,14-.14,4.88-.42,13.8-.42,33.33v22.93c0,21.65-1.7,38.21-9.91,51.15-6.66,10.41-16.29,13.59-26.06,13.59-8.21,0-17-2.55-23.22-9.76-8.5-9.77-12.6-24.42-12.6-49.25v-54.14c0-19.1-1.14-20.37-12.46-21.86v-5.94h37.24v5.94c-11.33,1.06-12.46,2.76-12.46,21.86V3364c0,31,9.77,48,26.76,48,20.11,0,26.48-18.68,26.48-53.92v-21.65c0-19.53-.43-27.6-.71-33.33-.42-9.55-3.68-13.16-14.16-14v-5.94h34Z"/><path class="cls-37" d="M4341.91,3316.43c-1.27-6.79-3-13.79-4.53-17.61-2.27-5.74-3.68-7.22-11.47-7.22h-14.16V3395c0,16.56,1.13,18.89,14.59,20.16v6h-41.21v-6c13.17-1.27,14.3-3.39,14.3-20.16V3291.6h-12.88c-7.79,0-10.06,1.27-12.47,7.64-1.69,4.25-2.83,9.34-4.67,17.19h-4.25c.85-12.94,1.7-26.32,2.13-38.21h3.25c2.13,5.1,3.69,4.89,7.65,4.89h56.08c4,0,5.09-.85,7.22-4.89h3.4c0,10,.56,25.27,1.27,37.58Z"/><path class="cls-37" d="M4357.77,3421.09v-6c11.61-1.91,12.74-2.75,12.74-20.8v-84.27c0-18.26-1.13-19.11-12.74-21v-5.94h37.95v5.94c-11.76,1.91-12.89,2.76-12.89,21v84.27c0,18.26,1.13,18.89,12.89,20.8v6Z"/><path class="cls-37" d="M4457,3280.13c24.21,0,45.88,27.81,45.88,70.06,0,45.64-20.68,74.08-46.73,74.08-27.19,0-47-31-47-70.9C4409.17,3315.37,4427.15,3280.13,4457,3280.13Zm-2.84,7.86c-15.85,0-30.3,20-30.3,59.65,0,39.48,14.45,68.57,34.55,68.57,17.14,0,30-19.11,30-60.08C4488.46,3311.55,4472.74,3288,4454.19,3288Z"/><path class="cls-37" d="M4614.48,3289.05c-9.06,1.49-12,3.61-12.46,13.37-.14,6.8-.42,15.71-.42,35.45V3423h-5.39l-60.6-111v53.07c0,19.1.42,28.65.71,34.81.28,10.83,3.82,14,14,15.28v6h-34.41v-6c8.78-1.06,12.17-4.24,12.74-14.64.43-6.8.71-16.35.71-35.67V3310.7c0-5.94-.28-9.34-2.83-14-2.69-5.3-5.67-6.58-12.61-7.64v-5.94h21.24l60,106.77v-52c0-19.74-.28-28.87-.7-35.23-.43-9.56-3.69-12.53-15-13.59v-5.94h35Z"/><rect x="3833.15" y="2748.97" width="32.79" height="707.27"/></g></g></svg>